<mxfile host="Electron" agent="Mozilla/5.0 (Windows NT 10.0; Win64; x64) AppleWebKit/537.36 (KHTML, like Gecko) draw.io/24.7.8 Chrome/128.0.6613.36 Electron/32.0.1 Safari/537.36" version="24.7.8">
  <diagram name="Page-1" id="9ccPNbNLAs-JF23yzgbc">
    <mxGraphModel dx="1900" dy="621" grid="1" gridSize="10" guides="1" tooltips="1" connect="1" arrows="1" fold="1" page="1" pageScale="1" pageWidth="850" pageHeight="1100" math="0" shadow="0">
      <root>
        <mxCell id="0" />
        <mxCell id="1" parent="0" />
        <mxCell id="nmWQUsSL-_XJP2JliFbC-1" value="TEXTO A EVALUAR" style="rounded=1;whiteSpace=wrap;html=1;" parent="1" vertex="1">
          <mxGeometry x="-190" y="240" width="120" height="60" as="geometry" />
        </mxCell>
        <mxCell id="nmWQUsSL-_XJP2JliFbC-2" value="" style="shape=process;whiteSpace=wrap;html=1;backgroundOutline=1;" parent="1" vertex="1">
          <mxGeometry x="240" y="160" width="120" height="60" as="geometry" />
        </mxCell>
        <mxCell id="nmWQUsSL-_XJP2JliFbC-3" value="NUESTRO MODELO" style="shape=process;whiteSpace=wrap;html=1;backgroundOutline=1;" parent="1" vertex="1">
          <mxGeometry x="240" y="160" width="120" height="60" as="geometry" />
        </mxCell>
        <mxCell id="nmWQUsSL-_XJP2JliFbC-4" value="(VER SI METEMOS OTRO MODELO GENAI)" style="shape=process;whiteSpace=wrap;html=1;backgroundOutline=1;" parent="1" vertex="1">
          <mxGeometry x="240" y="320" width="120" height="60" as="geometry" />
        </mxCell>
        <mxCell id="nmWQUsSL-_XJP2JliFbC-5" value="MODELO GEMINI" style="shape=process;whiteSpace=wrap;html=1;backgroundOutline=1;" parent="1" vertex="1">
          <mxGeometry x="240" y="240" width="120" height="60" as="geometry" />
        </mxCell>
        <mxCell id="nmWQUsSL-_XJP2JliFbC-6" value="" style="endArrow=classic;html=1;rounded=0;entryX=0;entryY=0.5;entryDx=0;entryDy=0;exitX=1;exitY=0.5;exitDx=0;exitDy=0;" parent="1" target="nmWQUsSL-_XJP2JliFbC-3" edge="1" source="kBVEJu5QmL2fV-f0nYBE-2">
          <mxGeometry width="50" height="50" relative="1" as="geometry">
            <mxPoint x="130" y="270" as="sourcePoint" />
            <mxPoint x="180" y="220" as="targetPoint" />
          </mxGeometry>
        </mxCell>
        <mxCell id="nmWQUsSL-_XJP2JliFbC-7" value="" style="endArrow=classic;html=1;rounded=0;entryX=0;entryY=0.5;entryDx=0;entryDy=0;exitX=1;exitY=0.5;exitDx=0;exitDy=0;" parent="1" source="kBVEJu5QmL2fV-f0nYBE-2" target="nmWQUsSL-_XJP2JliFbC-4" edge="1">
          <mxGeometry width="50" height="50" relative="1" as="geometry">
            <mxPoint x="130" y="270" as="sourcePoint" />
            <mxPoint x="250" y="210" as="targetPoint" />
          </mxGeometry>
        </mxCell>
        <mxCell id="nmWQUsSL-_XJP2JliFbC-8" value="" style="endArrow=classic;html=1;rounded=0;entryX=0;entryY=0.5;entryDx=0;entryDy=0;exitX=1;exitY=0.5;exitDx=0;exitDy=0;" parent="1" target="nmWQUsSL-_XJP2JliFbC-5" edge="1" source="kBVEJu5QmL2fV-f0nYBE-2">
          <mxGeometry width="50" height="50" relative="1" as="geometry">
            <mxPoint x="130" y="270" as="sourcePoint" />
            <mxPoint x="210" y="230" as="targetPoint" />
          </mxGeometry>
        </mxCell>
        <mxCell id="nmWQUsSL-_XJP2JliFbC-10" value="" style="shape=flexArrow;endArrow=classic;html=1;rounded=0;" parent="1" edge="1">
          <mxGeometry width="50" height="50" relative="1" as="geometry">
            <mxPoint x="370" y="189.5" as="sourcePoint" />
            <mxPoint x="425" y="189.5" as="targetPoint" />
          </mxGeometry>
        </mxCell>
        <mxCell id="nmWQUsSL-_XJP2JliFbC-11" value="" style="shape=flexArrow;endArrow=classic;html=1;rounded=0;" parent="1" edge="1">
          <mxGeometry width="50" height="50" relative="1" as="geometry">
            <mxPoint x="370" y="269.5" as="sourcePoint" />
            <mxPoint x="425" y="269.5" as="targetPoint" />
          </mxGeometry>
        </mxCell>
        <mxCell id="nmWQUsSL-_XJP2JliFbC-12" value="" style="shape=flexArrow;endArrow=classic;html=1;rounded=0;" parent="1" edge="1">
          <mxGeometry width="50" height="50" relative="1" as="geometry">
            <mxPoint x="370" y="349.5" as="sourcePoint" />
            <mxPoint x="425" y="349.5" as="targetPoint" />
          </mxGeometry>
        </mxCell>
        <mxCell id="nmWQUsSL-_XJP2JliFbC-13" value="JSON_1" style="shape=document;whiteSpace=wrap;html=1;boundedLbl=1;" parent="1" vertex="1">
          <mxGeometry x="450" y="175" width="60" height="30" as="geometry" />
        </mxCell>
        <mxCell id="nmWQUsSL-_XJP2JliFbC-14" value="JSON_2" style="shape=document;whiteSpace=wrap;html=1;boundedLbl=1;" parent="1" vertex="1">
          <mxGeometry x="450" y="255" width="60" height="30" as="geometry" />
        </mxCell>
        <mxCell id="nmWQUsSL-_XJP2JliFbC-15" value="JSON_3" style="shape=document;whiteSpace=wrap;html=1;boundedLbl=1;" parent="1" vertex="1">
          <mxGeometry x="450" y="335" width="60" height="30" as="geometry" />
        </mxCell>
        <mxCell id="nmWQUsSL-_XJP2JliFbC-16" value="" style="strokeWidth=2;html=1;shape=mxgraph.flowchart.annotation_2;align=left;labelPosition=right;pointerEvents=1;rotation=-180;" parent="1" vertex="1">
          <mxGeometry x="520" y="160" width="50" height="220" as="geometry" />
        </mxCell>
        <mxCell id="nmWQUsSL-_XJP2JliFbC-17" value="PROGRAMA PYTHON QUE ANALIZA LOS JSONS E IMPRIME RESULTADOS" style="shape=process;whiteSpace=wrap;html=1;backgroundOutline=1;" parent="1" vertex="1">
          <mxGeometry x="580" y="190" width="120" height="150" as="geometry" />
        </mxCell>
        <mxCell id="kBVEJu5QmL2fV-f0nYBE-1" value="" style="shape=flexArrow;endArrow=classic;html=1;rounded=0;" edge="1" parent="1">
          <mxGeometry width="50" height="50" relative="1" as="geometry">
            <mxPoint x="-60" y="269.5" as="sourcePoint" />
            <mxPoint x="10" y="269.5" as="targetPoint" />
          </mxGeometry>
        </mxCell>
        <mxCell id="kBVEJu5QmL2fV-f0nYBE-2" value="CORRECTOR&lt;div&gt;(devuelve texto corregido)&lt;/div&gt;" style="shape=process;whiteSpace=wrap;html=1;backgroundOutline=1;" vertex="1" parent="1">
          <mxGeometry x="30" y="240" width="120" height="60" as="geometry" />
        </mxCell>
      </root>
    </mxGraphModel>
  </diagram>
</mxfile>
